<svg width="154" height="100" viewBox="0 0 154 100" fill="none" xmlns="http://www.w3.org/2000/svg" xmlns:xlink="http://www.w3.org/1999/xlink">
	<defs/>
	<path id="CSoft" d="M123.59 0C125.13 0 126.49 0.16 127.66 0.48Q129.42 0.97 130.54 1.53L129.1 7.03C128.35 6.66 127.58 6.39 126.78 6.23C125.98 6.01 125.13 5.9 124.22 5.9C123 5.9 121.99 6.12 121.19 6.55C120.39 6.98 119.78 7.57 119.35 8.33C118.93 9.08 118.63 10 118.47 11.08C118.31 12.1 118.23 13.21 118.23 14.4L118.23 20.3L129.02 20.3L129.02 26.29L118.23 26.29L118.23 62.78L111.36 62.78L111.36 14.4C111.36 9.81 112.38 6.28 114.4 3.8C116.42 1.26 119.49 0 123.59 0ZM20.13 64Q14.36 64 10.18 61.41L10.18 61.41Q7.31 59.64 5.19 56.63Q0 49.27 0 33.9Q0 26.05 1.43 20.63Q2.95 15.21 5.59 11.81Q7.88 8.86 10.89 7.37L10.89 7.37Q11.34 7.15 11.82 6.95Q11.9 6.92 11.99 6.88L11.99 6.88Q15.51 5.42 19.65 5.42C21.99 5.42 24.17 5.74 26.2 6.39Q29.23 7.28 31.15 8.65L28.99 14.72Q28.91 14.67 28.83 14.61Q28.82 14.61 28.81 14.6L28.81 14.6L28.81 14.6Q26.97 13.39 24.84 12.62Q22.68 11.81 19.81 11.81Q16.37 11.81 13.95 13.38Q11.87 14.73 10.54 17.23Q7.66 22.57 7.66 33.9Q7.66 45.3 10.7 51.45C12.72 55.55 16.03 57.6 20.61 57.6C22.79 57.6 24.55 57.33 25.88 56.79C27.26 56.25 28.59 55.55 29.87 54.69L31.87 60.44C30.64 61.41 29.02 62.24 27 62.94C25.03 63.64 22.74 64 20.13 64ZM48.19 57.76C51.06 57.76 53.27 56.96 54.82 55.34Q55.27 54.88 55.63 54.37Q57.22 52.14 57.22 48.78C57.22 47.33 56.98 46.03 56.5 44.9C56.02 43.77 55.38 42.74 54.58 41.83C53.83 40.91 52.96 40.07 51.94 39.32C50.93 38.56 49.89 37.81 48.83 37.05C47.6 36.19 46.32 35.27 44.99 34.3C43.66 33.33 42.44 32.2 41.32 30.9C40.25 29.61 39.37 28.1 38.68 26.37C37.99 24.65 37.64 22.62 37.64 20.3Q37.64 16.91 38.76 14.15C39.56 12.32 40.63 10.76 41.96 9.46Q42.33 9.11 42.73 8.79L42.73 8.79Q44.54 7.33 46.83 6.47Q49.71 5.42 52.98 5.42C55.11 5.42 57.08 5.69 58.89 6.23C60.7 6.76 62.22 7.41 63.45 8.17L61.21 13.91C60.09 13.16 58.87 12.59 57.54 12.21C56.26 11.78 54.9 11.57 53.46 11.57C50.85 11.57 48.75 12.29 47.15 13.75C45.61 15.15 44.83 17.23 44.83 19.98C44.83 21.49 45.07 22.81 45.55 23.94C46.08 25.08 46.75 26.1 47.55 27.02C48.4 27.94 49.36 28.77 50.43 29.53C51.54 30.28 52.72 31.06 53.94 31.87C55.17 32.68 56.42 33.57 57.69 34.54C58.97 35.51 60.12 36.65 61.13 37.94C62.2 39.18 63.05 40.67 63.69 42.39C64.38 44.06 64.72 46.06 64.72 48.38C64.72 50.48 64.41 52.48 63.77 54.37C63.13 56.25 62.12 57.93 60.73 59.38C59.4 60.79 57.69 61.92 55.62 62.78C53.59 63.59 51.2 64 48.43 64C45.87 64 43.64 63.7 41.72 63.11C39.8 62.51 38.1 61.73 36.61 60.76L38.84 54.93C40.23 55.8 41.64 56.5 43.08 57.04C44.57 57.52 46.27 57.76 48.19 57.76ZM152.72 20.3L142.17 20.3L142.17 7.68L135.3 8.9L135.3 49.19C135.3 54.37 136.26 58.09 138.18 60.35C140.15 62.57 143.1 63.67 147.05 63.67C149.5 63.67 151.81 63.02 154 61.73L152.64 56.15C152.05 56.52 151.33 56.85 150.48 57.12C149.68 57.39 148.83 57.52 147.92 57.52C146.17 57.52 144.75 56.96 143.69 55.82C142.68 54.64 142.17 52.59 142.17 49.67L142.17 26.29L152.72 26.29L152.72 20.3ZM100.43 50.73C101.01 47.97 101.31 44.93 101.31 41.58C101.31 38.29 101.01 35.27 100.43 32.52C99.84 29.77 98.94 27.42 97.71 25.48C96.54 23.49 95.02 21.95 93.16 20.87C91.35 19.79 89.19 19.25 86.69 19.25C84.18 19.25 82 19.79 80.14 20.87C78.27 21.95 76.73 23.49 75.5 25.48C74.33 27.42 73.45 29.77 72.87 32.52Q71.99 36.65 71.99 41.58Q71.99 46.6 72.87 50.73C73.45 53.42 74.33 55.74 75.5 57.68C76.73 59.63 78.27 61.14 80.14 62.22C82 63.29 84.18 63.83 86.69 63.83C89.19 63.83 91.35 63.29 93.16 62.22C95.02 61.14 96.54 59.63 97.71 57.68C98.94 55.74 99.84 53.42 100.43 50.73ZM93.72 35.11C93.98 37.05 94.12 39.21 94.12 41.58C94.12 43.96 93.98 46.14 93.72 48.14C93.45 50.08 93.02 51.75 92.44 53.15C91.85 54.56 91.08 55.66 90.12 56.47C89.16 57.23 88.02 57.6 86.69 57.6C85.3 57.6 84.13 57.23 83.17 56.47C82.27 55.66 81.49 54.56 80.86 53.15C80.27 51.75 79.84 50.08 79.58 48.14C79.31 46.14 79.18 43.96 79.18 41.58C79.18 39.21 79.31 37.05 79.58 35.11C79.84 33.11 80.27 31.42 80.86 30.01C81.49 28.56 82.27 27.45 83.17 26.7C84.13 25.89 85.3 25.48 86.69 25.48C88.02 25.48 89.16 25.89 90.12 26.7C91.08 27.45 91.85 28.56 92.44 30.01C93.02 31.42 93.45 33.11 93.72 35.11Z" fill="#000000" fill-opacity="1.000000" fill-rule="evenodd"/>
	<path id="development" d="M7.34 72.43L9.81 72L9.81 94.2C9.27 94.43 8.66 94.61 7.97 94.75Q7.51 94.85 7.04 94.91Q6.46 94.98 5.88 94.98Q3.52 94.98 2.15 93.82Q1.71 93.46 1.37 92.97Q0 90.96 0 86.91Q0 85.08 0.28 83.62Q0.6 82.13 1.23 81.11Q1.76 80.27 2.51 79.75Q2.7 79.62 2.89 79.51Q3.9 78.93 5.27 78.93C5.71 78.93 6.09 78.98 6.39 79.08C6.72 79.15 7.03 79.27 7.34 79.42L7.34 72.43ZM61.01 94.9C59.59 94.86 58.58 94.51 57.97 93.85C57.36 93.17 57.05 92.1 57.05 90.64L57.05 72.43L59.52 72L59.52 90.7C59.52 91.38 59.65 91.88 59.92 92.19C60.19 92.48 60.66 92.68 61.33 92.8L61.01 94.9ZM149.75 79.31L153.54 79.31L153.54 81.46L149.75 81.46L149.75 89.88C149.75 90.93 149.93 91.67 150.29 92.1C150.68 92.51 151.18 92.71 151.82 92.71C152.14 92.71 152.45 92.66 152.73 92.57C153.04 92.47 153.3 92.35 153.51 92.22L154 94.23C153.21 94.69 152.38 94.93 151.5 94.93C150.08 94.93 149.02 94.53 148.31 93.73C147.63 92.91 147.28 91.57 147.28 89.71L147.28 75.2L149.75 74.76L149.75 79.31ZM17.66 87.7C17.68 88.44 17.75 89.12 17.86 89.74C17.98 90.34 18.16 90.88 18.41 91.34C18.68 91.79 19.02 92.14 19.44 92.39C19.88 92.64 20.44 92.77 21.1 92.77C21.66 92.77 22.17 92.69 22.63 92.54C23.1 92.36 23.45 92.22 23.66 92.1L24.12 94.11C23.87 94.28 23.45 94.47 22.86 94.66C22.28 94.88 21.59 94.98 20.79 94.98C19.74 94.98 18.85 94.79 18.12 94.4C17.41 94.01 16.83 93.47 16.37 92.77C15.93 92.07 15.62 91.23 15.42 90.26Q15.14 88.81 15.14 87.06Q15.14 82.83 16.51 80.88Q17.29 79.78 18.34 79.3Q19.17 78.93 20.16 78.93C21.86 78.93 23.07 79.58 23.77 80.88Q24.83 82.83 24.83 86.36L24.83 87.03C24.83 87.24 24.83 87.47 24.81 87.7L17.66 87.7ZM44.58 87.7C44.6 88.44 44.67 89.12 44.78 89.74C44.9 90.34 45.08 90.88 45.33 91.34C45.6 91.79 45.94 92.14 46.36 92.39C46.8 92.64 47.36 92.77 48.03 92.77C48.58 92.77 49.09 92.69 49.55 92.54C50.02 92.36 50.37 92.22 50.58 92.1L51.04 94.11Q50.67 94.37 49.78 94.66C49.2 94.88 48.51 94.98 47.71 94.98C46.66 94.98 45.77 94.79 45.04 94.4C44.33 94.01 43.75 93.47 43.29 92.77C42.85 92.07 42.54 91.23 42.35 90.26C42.15 89.29 42.06 88.22 42.06 87.06C42.06 84.24 42.52 82.18 43.44 80.88C44.35 79.58 45.57 78.93 47.08 78.93C48.78 78.93 49.99 79.58 50.69 80.88C51.4 82.18 51.76 84.01 51.76 86.36L51.76 87.03C51.76 87.24 51.75 87.47 51.73 87.7L44.58 87.7ZM75.47 86.97C75.47 88.18 75.37 89.27 75.16 90.26C74.95 91.23 74.62 92.07 74.18 92.77C73.76 93.47 73.22 94.01 72.55 94.4C71.9 94.79 71.12 94.98 70.22 94.98C69.32 94.98 68.54 94.79 67.87 94.4C67.2 94.01 66.65 93.47 66.21 92.77C65.79 92.07 65.47 91.23 65.26 90.26C65.05 89.27 64.94 88.18 64.94 86.97C64.94 85.79 65.05 84.7 65.26 83.71C65.47 82.72 65.79 81.87 66.21 81.17C66.65 80.45 67.2 79.9 67.87 79.51C68.54 79.12 69.32 78.93 70.22 78.93C71.12 78.93 71.9 79.12 72.55 79.51C73.22 79.9 73.76 80.45 74.18 81.17C74.62 81.87 74.95 82.72 75.16 83.71C75.37 84.7 75.47 85.79 75.47 86.97ZM83.25 100L80.78 100L80.78 79.72C81.31 79.48 81.92 79.3 82.59 79.16C83.27 79.01 83.97 78.93 84.68 78.93C85.73 78.93 86.63 79.11 87.38 79.48C88.14 79.85 88.75 80.39 89.21 81.09C89.69 81.77 90.04 82.61 90.25 83.62C90.48 84.61 90.59 85.75 90.59 87.03C90.59 89.61 90.18 91.58 89.36 92.94C88.55 94.3 87.23 94.98 85.4 94.98C84.96 94.98 84.57 94.94 84.22 94.84C83.88 94.76 83.55 94.64 83.25 94.49L83.25 100ZM119.37 87.7C119.39 88.44 119.45 89.12 119.57 89.74C119.68 90.34 119.87 90.88 120.11 91.34C120.38 91.79 120.73 92.14 121.15 92.39C121.59 92.64 122.14 92.77 122.81 92.77C123.37 92.77 123.87 92.69 124.33 92.54C124.81 92.36 125.15 92.22 125.36 92.1L125.82 94.11C125.57 94.28 125.15 94.47 124.56 94.66C123.99 94.88 123.3 94.98 122.5 94.98C121.44 94.98 120.55 94.79 119.83 94.4C119.12 94.01 118.54 93.47 118.08 92.77C117.64 92.07 117.32 91.23 117.13 90.26Q116.84 88.81 116.84 87.06Q116.84 82.83 118.22 80.88C119.14 79.58 120.35 78.93 121.86 78.93Q123.48 78.93 124.49 79.71Q125.09 80.16 125.48 80.88C126.19 82.18 126.54 84.01 126.54 86.36L126.54 87.03C126.54 87.24 126.53 87.47 126.51 87.7L119.37 87.7ZM95.92 79.75C96.59 79.53 97.32 79.36 98.1 79.22C98.89 79.07 99.6 78.99 100.25 78.99C100.92 78.99 101.53 79.08 102.06 79.25C102.62 79.42 103.1 79.72 103.52 80.12C104.02 79.79 104.56 79.52 105.13 79.31C105.7 79.09 106.34 78.99 107.02 78.99C107.71 78.99 108.33 79.09 108.89 79.31C109.46 79.5 109.95 79.84 110.35 80.33C110.75 80.81 111.07 81.47 111.3 82.31C111.53 83.13 111.64 84.14 111.64 85.37L111.64 94.6L109.18 94.6L109.18 85.57C109.18 84.06 109 82.95 108.66 82.25C108.32 81.55 107.67 81.2 106.71 81.2C106.35 81.2 105.97 81.27 105.59 81.41C105.23 81.54 104.88 81.73 104.56 81.96C104.71 82.41 104.82 82.91 104.9 83.47C104.98 84.04 105.02 84.67 105.02 85.37L105.02 94.6L102.55 94.6L102.55 85.57C102.55 84.06 102.38 82.95 102.03 82.25C101.69 81.55 101.04 81.2 100.08 81.2C99.58 81.2 99.02 81.3 98.39 81.49L98.39 94.6L95.92 94.6L95.92 79.75ZM131.89 79.75C132.6 79.53 133.37 79.36 134.19 79.22Q135.42 78.99 136.45 78.99C137.2 78.99 137.88 79.09 138.49 79.31C139.1 79.5 139.62 79.84 140.04 80.33C140.48 80.81 140.81 81.47 141.04 82.31C141.29 83.13 141.42 84.14 141.42 85.37L141.42 94.6L138.95 94.6L138.95 85.57C138.95 84.06 138.76 82.95 138.38 82.25C137.99 81.55 137.28 81.2 136.22 81.2C135.67 81.2 135.05 81.3 134.36 81.49L134.36 94.6L131.89 94.6L131.89 79.75ZM33.55 91.66C33.78 90.89 34.02 89.97 34.26 88.92C34.53 87.87 34.79 86.8 35.04 85.69C35.29 84.56 35.52 83.45 35.73 82.34C35.96 81.23 36.15 80.22 36.3 79.31L38.77 79.31C38.52 80.59 38.22 81.94 37.88 83.36C37.55 84.78 37.21 86.17 36.85 87.55C36.5 88.91 36.15 90.21 35.78 91.43C35.42 92.65 35.09 93.71 34.78 94.6L32.23 94.6C31.92 93.71 31.59 92.65 31.22 91.43C30.86 90.21 30.5 88.91 30.13 87.55C29.79 86.17 29.44 84.78 29.1 83.36C28.77 81.94 28.49 80.59 28.24 79.31L30.85 79.31C31 80.22 31.18 81.23 31.39 82.34C31.62 83.45 31.85 84.56 32.08 85.69C32.33 86.8 32.58 87.87 32.83 88.92C33.08 89.97 33.32 90.89 33.55 91.66ZM20.16 81.06C19.34 81.06 18.73 81.47 18.35 82.31C17.99 83.14 17.77 84.26 17.69 85.66L22.25 85.66C22.25 84.24 22.11 83.13 21.82 82.31C21.54 81.47 20.98 81.06 20.16 81.06ZM47.08 81.06C46.26 81.06 45.65 81.47 45.27 82.31C44.91 83.14 44.69 84.26 44.61 85.66L49.17 85.66C49.17 84.24 49.03 83.13 48.74 82.31C48.46 81.47 47.9 81.06 47.08 81.06ZM121.86 81.06Q121.36 81.06 120.97 81.26Q120.4 81.57 120.06 82.31Q119.51 83.56 119.4 85.66L123.96 85.66C123.96 84.24 123.81 83.13 123.53 82.31C123.24 81.47 122.69 81.06 121.86 81.06ZM7.34 81.61Q6.9 81.36 6.43 81.25Q6.01 81.14 5.56 81.14C5.08 81.14 4.66 81.24 4.3 81.44C3.94 81.63 3.62 81.95 3.35 82.4C3.1 82.84 2.91 83.44 2.78 84.17C2.64 84.91 2.58 85.83 2.58 86.91C2.58 89.01 2.84 90.52 3.38 91.43C3.94 92.32 4.77 92.77 5.88 92.77C6.09 92.77 6.32 92.76 6.56 92.74C6.81 92.7 7.07 92.64 7.34 92.57L7.34 81.61ZM83.25 92.3C83.8 92.61 84.39 92.77 85.02 92.77C85.5 92.77 85.92 92.67 86.29 92.48C86.65 92.28 86.96 91.96 87.21 91.52C87.47 91.07 87.67 90.48 87.81 89.74C87.94 89 88.01 88.09 88.01 87Q88.01 83.85 87.21 82.51C86.69 81.6 85.86 81.14 84.71 81.14C84.5 81.14 84.27 81.16 84.02 81.2C83.77 81.22 83.51 81.27 83.25 81.35L83.25 92.3ZM72.89 86.97C72.89 86.12 72.84 85.34 72.75 84.64C72.65 83.92 72.5 83.31 72.29 82.8C72.08 82.28 71.8 81.88 71.46 81.61C71.11 81.32 70.7 81.17 70.22 81.17C69.73 81.17 69.31 81.32 68.96 81.61C68.64 81.88 68.36 82.28 68.13 82.8C67.92 83.31 67.77 83.92 67.67 84.64C67.57 85.34 67.53 86.12 67.53 86.97C67.53 87.83 67.57 88.61 67.67 89.33C67.77 90.03 67.92 90.63 68.13 91.14C68.36 91.64 68.64 92.04 68.96 92.33C69.31 92.6 69.73 92.74 70.22 92.74C70.7 92.74 71.11 92.6 71.46 92.33C71.8 92.04 72.08 91.64 72.29 91.14C72.5 90.63 72.65 90.03 72.75 89.33C72.84 88.61 72.89 87.83 72.89 86.97Z" fill="#000000" fill-opacity="1.000000" fill-rule="evenodd"/>
</svg>
